<?xml version="1.0" encoding="utf-8"?>
<svg xmlns="http://www.w3.org/2000/svg" xmlns:xlink="http://www.w3.org/1999/xlink" width="600" height="400" viewBox="0 0 2400 1600">
<defs>
  <clipPath id="clip850">
    <rect x="0" y="0" width="2400" height="1600"/>
  </clipPath>
</defs>
<path clip-path="url(#clip850)" d="
M0 1600 L2400 1600 L2400 0 L0 0  Z
  " fill="#ffffff" fill-rule="evenodd" fill-opacity="1"/>
<defs>
  <clipPath id="clip851">
    <rect x="480" y="0" width="1681" height="1600"/>
  </clipPath>
</defs>
<path clip-path="url(#clip850)" d="
M178.867 1486.45 L2352.76 1486.45 L2352.76 47.2441 L178.867 47.2441  Z
  " fill="#ffffff" fill-rule="evenodd" fill-opacity="1"/>
<defs>
  <clipPath id="clip852">
    <rect x="178" y="47" width="2175" height="1440"/>
  </clipPath>
</defs>
<polyline clip-path="url(#clip852)" style="stroke:#000000; stroke-linecap:butt; stroke-linejoin:round; stroke-width:2; stroke-opacity:0.1; fill:none" points="
  445.476,1486.45 445.476,47.2441 
  "/>
<polyline clip-path="url(#clip852)" style="stroke:#000000; stroke-linecap:butt; stroke-linejoin:round; stroke-width:2; stroke-opacity:0.1; fill:none" points="
  855.643,1486.45 855.643,47.2441 
  "/>
<polyline clip-path="url(#clip852)" style="stroke:#000000; stroke-linecap:butt; stroke-linejoin:round; stroke-width:2; stroke-opacity:0.1; fill:none" points="
  1265.81,1486.45 1265.81,47.2441 
  "/>
<polyline clip-path="url(#clip852)" style="stroke:#000000; stroke-linecap:butt; stroke-linejoin:round; stroke-width:2; stroke-opacity:0.1; fill:none" points="
  1675.98,1486.45 1675.98,47.2441 
  "/>
<polyline clip-path="url(#clip852)" style="stroke:#000000; stroke-linecap:butt; stroke-linejoin:round; stroke-width:2; stroke-opacity:0.1; fill:none" points="
  2086.15,1486.45 2086.15,47.2441 
  "/>
<polyline clip-path="url(#clip850)" style="stroke:#000000; stroke-linecap:butt; stroke-linejoin:round; stroke-width:4; stroke-opacity:1; fill:none" points="
  178.867,1486.45 2352.76,1486.45 
  "/>
<polyline clip-path="url(#clip850)" style="stroke:#000000; stroke-linecap:butt; stroke-linejoin:round; stroke-width:4; stroke-opacity:1; fill:none" points="
  445.476,1486.45 445.476,1469.18 
  "/>
<polyline clip-path="url(#clip850)" style="stroke:#000000; stroke-linecap:butt; stroke-linejoin:round; stroke-width:4; stroke-opacity:1; fill:none" points="
  855.643,1486.45 855.643,1469.18 
  "/>
<polyline clip-path="url(#clip850)" style="stroke:#000000; stroke-linecap:butt; stroke-linejoin:round; stroke-width:4; stroke-opacity:1; fill:none" points="
  1265.81,1486.45 1265.81,1469.18 
  "/>
<polyline clip-path="url(#clip850)" style="stroke:#000000; stroke-linecap:butt; stroke-linejoin:round; stroke-width:4; stroke-opacity:1; fill:none" points="
  1675.98,1486.45 1675.98,1469.18 
  "/>
<polyline clip-path="url(#clip850)" style="stroke:#000000; stroke-linecap:butt; stroke-linejoin:round; stroke-width:4; stroke-opacity:1; fill:none" points="
  2086.15,1486.45 2086.15,1469.18 
  "/>
<path clip-path="url(#clip850)" d="M414.376 1530.29 L444.052 1530.29 L444.052 1534.23 L414.376 1534.23 L414.376 1530.29 Z" fill="#000000" fill-rule="evenodd" fill-opacity="1" /><path clip-path="url(#clip850)" d="M466.992 1516.63 L455.186 1535.08 L466.992 1535.08 L466.992 1516.63 M465.765 1512.56 L471.645 1512.56 L471.645 1535.08 L476.575 1535.08 L476.575 1538.97 L471.645 1538.97 L471.645 1547.12 L466.992 1547.12 L466.992 1538.97 L451.39 1538.97 L451.39 1534.46 L465.765 1512.56 Z" fill="#000000" fill-rule="evenodd" fill-opacity="1" /><path clip-path="url(#clip850)" d="M825.586 1530.29 L855.262 1530.29 L855.262 1534.23 L825.586 1534.23 L825.586 1530.29 Z" fill="#000000" fill-rule="evenodd" fill-opacity="1" /><path clip-path="url(#clip850)" d="M869.382 1543.18 L885.701 1543.18 L885.701 1547.12 L863.757 1547.12 L863.757 1543.18 Q866.419 1540.43 871.002 1535.8 Q875.609 1531.15 876.789 1529.81 Q879.035 1527.28 879.914 1525.55 Q880.817 1523.79 880.817 1522.1 Q880.817 1519.34 878.873 1517.61 Q876.951 1515.87 873.849 1515.87 Q871.65 1515.87 869.197 1516.63 Q866.766 1517.4 863.988 1518.95 L863.988 1514.23 Q866.812 1513.09 869.266 1512.51 Q871.72 1511.93 873.757 1511.93 Q879.127 1511.93 882.322 1514.62 Q885.516 1517.31 885.516 1521.8 Q885.516 1523.93 884.706 1525.85 Q883.919 1527.74 881.812 1530.34 Q881.234 1531.01 878.132 1534.23 Q875.03 1537.42 869.382 1543.18 Z" fill="#000000" fill-rule="evenodd" fill-opacity="1" /><path clip-path="url(#clip850)" d="M1265.81 1515.64 Q1262.2 1515.64 1260.37 1519.2 Q1258.57 1522.75 1258.57 1529.87 Q1258.57 1536.98 1260.37 1540.55 Q1262.2 1544.09 1265.81 1544.09 Q1269.45 1544.09 1271.25 1540.55 Q1273.08 1536.98 1273.08 1529.87 Q1273.08 1522.75 1271.25 1519.2 Q1269.45 1515.64 1265.81 1515.64 M1265.81 1511.93 Q1271.62 1511.93 1274.68 1516.54 Q1277.76 1521.12 1277.76 1529.87 Q1277.76 1538.6 1274.68 1543.21 Q1271.62 1547.79 1265.81 1547.79 Q1260 1547.79 1256.92 1543.21 Q1253.87 1538.6 1253.87 1529.87 Q1253.87 1521.12 1256.92 1516.54 Q1260 1511.93 1265.81 1511.93 Z" fill="#000000" fill-rule="evenodd" fill-opacity="1" /><path clip-path="url(#clip850)" d="M1670.63 1543.18 L1686.95 1543.18 L1686.95 1547.12 L1665.01 1547.12 L1665.01 1543.18 Q1667.67 1540.43 1672.25 1535.8 Q1676.86 1531.15 1678.04 1529.81 Q1680.28 1527.28 1681.16 1525.55 Q1682.07 1523.79 1682.07 1522.1 Q1682.07 1519.34 1680.12 1517.61 Q1678.2 1515.87 1675.1 1515.87 Q1672.9 1515.87 1670.45 1516.63 Q1668.02 1517.4 1665.24 1518.95 L1665.24 1514.23 Q1668.06 1513.09 1670.52 1512.51 Q1672.97 1511.93 1675.01 1511.93 Q1680.38 1511.93 1683.57 1514.62 Q1686.77 1517.31 1686.77 1521.8 Q1686.77 1523.93 1685.96 1525.85 Q1685.17 1527.74 1683.06 1530.34 Q1682.48 1531.01 1679.38 1534.23 Q1676.28 1537.42 1670.63 1543.18 Z" fill="#000000" fill-rule="evenodd" fill-opacity="1" /><path clip-path="url(#clip850)" d="M2089.16 1516.63 L2077.35 1535.08 L2089.16 1535.08 L2089.16 1516.63 M2087.93 1512.56 L2093.81 1512.56 L2093.81 1535.08 L2098.74 1535.08 L2098.74 1538.97 L2093.81 1538.97 L2093.81 1547.12 L2089.16 1547.12 L2089.16 1538.97 L2073.55 1538.97 L2073.55 1534.46 L2087.93 1512.56 Z" fill="#000000" fill-rule="evenodd" fill-opacity="1" /><polyline clip-path="url(#clip852)" style="stroke:#000000; stroke-linecap:butt; stroke-linejoin:round; stroke-width:2; stroke-opacity:0.1; fill:none" points="
  178.867,1344.73 2352.76,1344.73 
  "/>
<polyline clip-path="url(#clip852)" style="stroke:#000000; stroke-linecap:butt; stroke-linejoin:round; stroke-width:2; stroke-opacity:0.1; fill:none" points="
  178.867,1120.31 2352.76,1120.31 
  "/>
<polyline clip-path="url(#clip852)" style="stroke:#000000; stroke-linecap:butt; stroke-linejoin:round; stroke-width:2; stroke-opacity:0.1; fill:none" points="
  178.867,895.887 2352.76,895.887 
  "/>
<polyline clip-path="url(#clip852)" style="stroke:#000000; stroke-linecap:butt; stroke-linejoin:round; stroke-width:2; stroke-opacity:0.1; fill:none" points="
  178.867,671.468 2352.76,671.468 
  "/>
<polyline clip-path="url(#clip852)" style="stroke:#000000; stroke-linecap:butt; stroke-linejoin:round; stroke-width:2; stroke-opacity:0.1; fill:none" points="
  178.867,447.048 2352.76,447.048 
  "/>
<polyline clip-path="url(#clip852)" style="stroke:#000000; stroke-linecap:butt; stroke-linejoin:round; stroke-width:2; stroke-opacity:0.1; fill:none" points="
  178.867,222.628 2352.76,222.628 
  "/>
<polyline clip-path="url(#clip850)" style="stroke:#000000; stroke-linecap:butt; stroke-linejoin:round; stroke-width:4; stroke-opacity:1; fill:none" points="
  178.867,1486.45 178.867,47.2441 
  "/>
<polyline clip-path="url(#clip850)" style="stroke:#000000; stroke-linecap:butt; stroke-linejoin:round; stroke-width:4; stroke-opacity:1; fill:none" points="
  178.867,1344.73 204.953,1344.73 
  "/>
<polyline clip-path="url(#clip850)" style="stroke:#000000; stroke-linecap:butt; stroke-linejoin:round; stroke-width:4; stroke-opacity:1; fill:none" points="
  178.867,1120.31 204.953,1120.31 
  "/>
<polyline clip-path="url(#clip850)" style="stroke:#000000; stroke-linecap:butt; stroke-linejoin:round; stroke-width:4; stroke-opacity:1; fill:none" points="
  178.867,895.887 204.953,895.887 
  "/>
<polyline clip-path="url(#clip850)" style="stroke:#000000; stroke-linecap:butt; stroke-linejoin:round; stroke-width:4; stroke-opacity:1; fill:none" points="
  178.867,671.468 204.953,671.468 
  "/>
<polyline clip-path="url(#clip850)" style="stroke:#000000; stroke-linecap:butt; stroke-linejoin:round; stroke-width:4; stroke-opacity:1; fill:none" points="
  178.867,447.048 204.953,447.048 
  "/>
<polyline clip-path="url(#clip850)" style="stroke:#000000; stroke-linecap:butt; stroke-linejoin:round; stroke-width:4; stroke-opacity:1; fill:none" points="
  178.867,222.628 204.953,222.628 
  "/>
<path clip-path="url(#clip850)" d="M50.9921 1345.18 L80.6679 1345.18 L80.6679 1349.11 L50.9921 1349.11 L50.9921 1345.18 Z" fill="#000000" fill-rule="evenodd" fill-opacity="1" /><path clip-path="url(#clip850)" d="M91.5706 1358.07 L99.2095 1358.07 L99.2095 1331.71 L90.8993 1333.37 L90.8993 1329.11 L99.1632 1327.45 L103.839 1327.45 L103.839 1358.07 L111.478 1358.07 L111.478 1362.01 L91.5706 1362.01 L91.5706 1358.07 Z" fill="#000000" fill-rule="evenodd" fill-opacity="1" /><path clip-path="url(#clip850)" d="M130.922 1330.53 Q127.311 1330.53 125.482 1334.09 Q123.677 1337.63 123.677 1344.76 Q123.677 1351.87 125.482 1355.43 Q127.311 1358.97 130.922 1358.97 Q134.556 1358.97 136.362 1355.43 Q138.191 1351.87 138.191 1344.76 Q138.191 1337.63 136.362 1334.09 Q134.556 1330.53 130.922 1330.53 M130.922 1326.82 Q136.732 1326.82 139.788 1331.43 Q142.867 1336.01 142.867 1344.76 Q142.867 1353.49 139.788 1358.09 Q136.732 1362.68 130.922 1362.68 Q125.112 1362.68 122.033 1358.09 Q118.978 1353.49 118.978 1344.76 Q118.978 1336.01 122.033 1331.43 Q125.112 1326.82 130.922 1326.82 Z" fill="#000000" fill-rule="evenodd" fill-opacity="1" /><path clip-path="url(#clip850)" d="M82.1494 1120.76 L111.825 1120.76 L111.825 1124.69 L82.1494 1124.69 L82.1494 1120.76 Z" fill="#000000" fill-rule="evenodd" fill-opacity="1" /><path clip-path="url(#clip850)" d="M121.964 1103.03 L140.32 1103.03 L140.32 1106.96 L126.246 1106.96 L126.246 1115.43 Q127.265 1115.09 128.283 1114.93 Q129.302 1114.74 130.32 1114.74 Q136.107 1114.74 139.487 1117.91 Q142.867 1121.08 142.867 1126.5 Q142.867 1132.08 139.394 1135.18 Q135.922 1138.26 129.603 1138.26 Q127.427 1138.26 125.158 1137.89 Q122.913 1137.52 120.506 1136.78 L120.506 1132.08 Q122.589 1133.21 124.811 1133.77 Q127.033 1134.32 129.51 1134.32 Q133.515 1134.32 135.853 1132.22 Q138.191 1130.11 138.191 1126.5 Q138.191 1122.89 135.853 1120.78 Q133.515 1118.68 129.51 1118.68 Q127.635 1118.68 125.76 1119.09 Q123.908 1119.51 121.964 1120.39 L121.964 1103.03 Z" fill="#000000" fill-rule="evenodd" fill-opacity="1" /><path clip-path="url(#clip850)" d="M130.922 881.686 Q127.311 881.686 125.482 885.251 Q123.677 888.792 123.677 895.922 Q123.677 903.028 125.482 906.593 Q127.311 910.135 130.922 910.135 Q134.556 910.135 136.362 906.593 Q138.191 903.028 138.191 895.922 Q138.191 888.792 136.362 885.251 Q134.556 881.686 130.922 881.686 M130.922 877.982 Q136.732 877.982 139.788 882.589 Q142.867 887.172 142.867 895.922 Q142.867 904.649 139.788 909.255 Q136.732 913.839 130.922 913.839 Q125.112 913.839 122.033 909.255 Q118.978 904.649 118.978 895.922 Q118.978 887.172 122.033 882.589 Q125.112 877.982 130.922 877.982 Z" fill="#000000" fill-rule="evenodd" fill-opacity="1" /><path clip-path="url(#clip850)" d="M121.964 654.188 L140.32 654.188 L140.32 658.123 L126.246 658.123 L126.246 666.595 Q127.265 666.248 128.283 666.086 Q129.302 665.9 130.32 665.9 Q136.107 665.9 139.487 669.072 Q142.867 672.243 142.867 677.66 Q142.867 683.238 139.394 686.34 Q135.922 689.419 129.603 689.419 Q127.427 689.419 125.158 689.049 Q122.913 688.678 120.506 687.937 L120.506 683.238 Q122.589 684.373 124.811 684.928 Q127.033 685.484 129.51 685.484 Q133.515 685.484 135.853 683.377 Q138.191 681.271 138.191 677.66 Q138.191 674.049 135.853 671.942 Q133.515 669.836 129.51 669.836 Q127.635 669.836 125.76 670.252 Q123.908 670.669 121.964 671.549 L121.964 654.188 Z" fill="#000000" fill-rule="evenodd" fill-opacity="1" /><path clip-path="url(#clip850)" d="M91.5706 460.393 L99.2095 460.393 L99.2095 434.027 L90.8993 435.694 L90.8993 431.435 L99.1632 429.768 L103.839 429.768 L103.839 460.393 L111.478 460.393 L111.478 464.328 L91.5706 464.328 L91.5706 460.393 Z" fill="#000000" fill-rule="evenodd" fill-opacity="1" /><path clip-path="url(#clip850)" d="M130.922 432.847 Q127.311 432.847 125.482 436.411 Q123.677 439.953 123.677 447.083 Q123.677 454.189 125.482 457.754 Q127.311 461.295 130.922 461.295 Q134.556 461.295 136.362 457.754 Q138.191 454.189 138.191 447.083 Q138.191 439.953 136.362 436.411 Q134.556 432.847 130.922 432.847 M130.922 429.143 Q136.732 429.143 139.788 433.749 Q142.867 438.333 142.867 447.083 Q142.867 455.809 139.788 460.416 Q136.732 464.999 130.922 464.999 Q125.112 464.999 122.033 460.416 Q118.978 455.809 118.978 447.083 Q118.978 438.333 122.033 433.749 Q125.112 429.143 130.922 429.143 Z" fill="#000000" fill-rule="evenodd" fill-opacity="1" /><path clip-path="url(#clip850)" d="M92.566 235.973 L100.205 235.973 L100.205 209.607 L91.8947 211.274 L91.8947 207.015 L100.159 205.348 L104.834 205.348 L104.834 235.973 L112.473 235.973 L112.473 239.908 L92.566 239.908 L92.566 235.973 Z" fill="#000000" fill-rule="evenodd" fill-opacity="1" /><path clip-path="url(#clip850)" d="M121.964 205.348 L140.32 205.348 L140.32 209.283 L126.246 209.283 L126.246 217.755 Q127.265 217.408 128.283 217.246 Q129.302 217.061 130.32 217.061 Q136.107 217.061 139.487 220.232 Q142.867 223.404 142.867 228.82 Q142.867 234.399 139.394 237.501 Q135.922 240.579 129.603 240.579 Q127.427 240.579 125.158 240.209 Q122.913 239.839 120.506 239.098 L120.506 234.399 Q122.589 235.533 124.811 236.089 Q127.033 236.644 129.51 236.644 Q133.515 236.644 135.853 234.538 Q138.191 232.431 138.191 228.82 Q138.191 225.209 135.853 223.103 Q133.515 220.996 129.51 220.996 Q127.635 220.996 125.76 221.413 Q123.908 221.83 121.964 222.709 L121.964 205.348 Z" fill="#000000" fill-rule="evenodd" fill-opacity="1" /><polyline clip-path="url(#clip852)" style="stroke:#8aa2d3; stroke-linecap:butt; stroke-linejoin:round; stroke-width:4; stroke-opacity:1; fill:none" points="
  240.392,536.816 260.9,576.762 281.409,615.812 301.917,653.963 322.425,691.217 342.934,727.573 363.442,763.031 383.951,797.591 404.459,831.254 424.967,864.02 
  445.476,895.887 465.984,926.857 486.492,956.93 507.001,986.104 527.509,1014.38 548.018,1041.76 568.526,1068.24 589.034,1093.83 609.543,1118.51 630.051,1142.3 
  650.56,1165.19 671.068,1187.18 691.576,1208.28 712.085,1228.48 732.593,1247.78 753.102,1266.18 773.61,1283.68 794.118,1300.29 814.627,1316 835.135,1330.81 
  855.643,1344.73 876.152,1357.74 896.66,1369.86 917.169,1381.08 937.677,1391.41 958.185,1400.83 978.694,1409.36 999.202,1416.99 1019.71,1423.72 1040.22,1429.56 
  1060.73,1434.49 1081.24,1438.53 1101.74,1441.68 1122.25,1443.92 1142.76,1445.27 1163.27,1445.72 1183.78,1445.27 1204.29,1443.92 1224.79,1441.68 1245.3,1438.53 
  1265.81,1434.49 1286.32,1429.56 1306.83,1423.72 1327.34,1416.99 1347.84,1409.36 1368.35,1400.83 1388.86,1391.41 1409.37,1381.08 1429.88,1369.86 1450.39,1357.74 
  1470.9,1344.73 1491.4,1330.81 1511.91,1316 1532.42,1300.29 1552.93,1283.68 1573.44,1266.18 1593.95,1247.78 1614.45,1228.48 1634.96,1208.28 1655.47,1187.18 
  1675.98,1165.19 1696.49,1142.3 1717,1118.51 1737.5,1093.83 1758.01,1068.24 1778.52,1041.76 1799.03,1014.38 1819.54,986.104 1840.05,956.93 1860.55,926.857 
  1881.06,895.887 1901.57,864.02 1922.08,831.254 1942.59,797.591 1963.1,763.031 1983.6,727.573 2004.11,691.217 2024.62,653.963 2045.13,615.812 2065.64,576.762 
  2086.15,536.816 2106.66,495.971 2127.16,454.229 2147.67,411.59 2168.18,368.052 2188.69,323.617 2209.2,278.284 2229.71,232.054 2250.21,184.926 2270.72,136.9 
  2291.23,87.9763 
  "/>
<polyline clip-path="url(#clip852)" style="stroke:#8aa2d3; stroke-linecap:butt; stroke-linejoin:round; stroke-width:4; stroke-opacity:1; fill:none" points="
  445.476,895.887 804.373,895.887 1163.27,895.887 1522.17,895.887 1881.06,895.887 
  "/>
<path clip-path="url(#clip850)" d="M768.866 851.696 L790.701 851.696 L790.701 858.34 L768.866 858.34 L768.866 851.696 Z" fill="#000000" fill-rule="evenodd" fill-opacity="1" /><path clip-path="url(#clip850)" d="M832.425 839.26 L832.425 814.711 L839.879 814.711 L839.879 877.743 L832.425 877.743 L832.425 870.938 Q830.075 874.989 826.47 876.974 Q822.905 878.918 817.882 878.918 Q809.659 878.918 804.474 872.356 Q799.329 865.793 799.329 855.099 Q799.329 844.404 804.474 837.842 Q809.659 831.279 817.882 831.279 Q822.905 831.279 826.47 833.264 Q830.075 835.209 832.425 839.26 M807.026 855.099 Q807.026 863.322 810.388 868.021 Q813.791 872.68 819.705 872.68 Q825.62 872.68 829.022 868.021 Q832.425 863.322 832.425 855.099 Q832.425 846.875 829.022 842.217 Q825.62 837.518 819.705 837.518 Q813.791 837.518 810.388 842.217 Q807.026 846.875 807.026 855.099 Z" fill="#000000" fill-rule="evenodd" fill-opacity="1" /><path clip-path="url(#clip850)" d="M1498.61 825.73 L1498.61 848.293 L1521.17 848.293 L1521.17 855.18 L1498.61 855.18 L1498.61 877.743 L1491.8 877.743 L1491.8 855.18 L1469.24 855.18 L1469.24 848.293 L1491.8 848.293 L1491.8 825.73 L1498.61 825.73 Z" fill="#000000" fill-rule="evenodd" fill-opacity="1" /><path clip-path="url(#clip850)" d="M1567.64 839.26 L1567.64 814.711 L1575.09 814.711 L1575.09 877.743 L1567.64 877.743 L1567.64 870.938 Q1565.29 874.989 1561.68 876.974 Q1558.12 878.918 1553.09 878.918 Q1544.87 878.918 1539.69 872.356 Q1534.54 865.793 1534.54 855.099 Q1534.54 844.404 1539.69 837.842 Q1544.87 831.279 1553.09 831.279 Q1558.12 831.279 1561.68 833.264 Q1565.29 835.209 1567.64 839.26 M1542.24 855.099 Q1542.24 863.322 1545.6 868.021 Q1549 872.68 1554.92 872.68 Q1560.83 872.68 1564.23 868.021 Q1567.64 863.322 1567.64 855.099 Q1567.64 846.875 1564.23 842.217 Q1560.83 837.518 1554.92 837.518 Q1549 837.518 1545.6 842.217 Q1542.24 846.875 1542.24 855.099 Z" fill="#000000" fill-rule="evenodd" fill-opacity="1" /><circle clip-path="url(#clip852)" cx="445.476" cy="895.887" r="14" fill="#8aa2d3" fill-rule="evenodd" fill-opacity="1" stroke="#000000" stroke-opacity="1" stroke-width="3.2"/>
<circle clip-path="url(#clip852)" cx="1881.06" cy="895.887" r="14" fill="#8aa2d3" fill-rule="evenodd" fill-opacity="1" stroke="#000000" stroke-opacity="1" stroke-width="3.2"/>
<circle clip-path="url(#clip852)" cx="1163.27" cy="895.887" r="14" fill="#8aa2d3" fill-rule="evenodd" fill-opacity="1" stroke="#000000" stroke-opacity="1" stroke-width="3.2"/>
<path clip-path="url(#clip850)" d="M431.642 854.937 Q422.608 854.937 419.125 857.003 Q415.641 859.069 415.641 864.051 Q415.641 868.021 418.233 870.371 Q420.866 872.68 425.363 872.68 Q431.561 872.68 435.288 868.305 Q439.055 863.889 439.055 856.598 L439.055 854.937 L431.642 854.937 M446.509 851.858 L446.509 877.743 L439.055 877.743 L439.055 870.857 Q436.503 874.989 432.695 876.974 Q428.887 878.918 423.378 878.918 Q416.41 878.918 412.279 875.029 Q408.187 871.1 408.187 864.537 Q408.187 856.881 413.291 852.992 Q418.436 849.103 428.604 849.103 L439.055 849.103 L439.055 848.374 Q439.055 843.23 435.652 840.435 Q432.29 837.599 426.173 837.599 Q422.284 837.599 418.598 838.531 Q414.912 839.462 411.509 841.326 L411.509 834.439 Q415.6 832.859 419.449 832.09 Q423.297 831.279 426.943 831.279 Q436.787 831.279 441.648 836.384 Q446.509 841.488 446.509 851.858 Z" fill="#000000" fill-rule="evenodd" fill-opacity="1" /><path clip-path="url(#clip850)" d="M460.363 873.287 L468.627 873.287 L468.627 848.536 L459.593 850.197 L459.593 845.498 L468.91 843.918 L474.46 843.918 L474.46 873.287 L482.764 873.287 L482.764 877.743 L460.363 877.743 L460.363 873.287 Z" fill="#000000" fill-rule="evenodd" fill-opacity="1" /><path clip-path="url(#clip850)" d="M1867.57 854.937 Q1858.54 854.937 1855.06 857.003 Q1851.57 859.069 1851.57 864.051 Q1851.57 868.021 1854.16 870.371 Q1856.8 872.68 1861.29 872.68 Q1867.49 872.68 1871.22 868.305 Q1874.99 863.889 1874.99 856.598 L1874.99 854.937 L1867.57 854.937 M1882.44 851.858 L1882.44 877.743 L1874.99 877.743 L1874.99 870.857 Q1872.43 874.989 1868.63 876.974 Q1864.82 878.918 1859.31 878.918 Q1852.34 878.918 1848.21 875.029 Q1844.12 871.1 1844.12 864.537 Q1844.12 856.881 1849.22 852.992 Q1854.37 849.103 1864.54 849.103 L1874.99 849.103 L1874.99 848.374 Q1874.99 843.23 1871.58 840.435 Q1868.22 837.599 1862.1 837.599 Q1858.22 837.599 1854.53 838.531 Q1850.84 839.462 1847.44 841.326 L1847.44 834.439 Q1851.53 832.859 1855.38 832.09 Q1859.23 831.279 1862.87 831.279 Q1872.72 831.279 1877.58 836.384 Q1882.44 841.488 1882.44 851.858 Z" fill="#000000" fill-rule="evenodd" fill-opacity="1" /><path clip-path="url(#clip850)" d="M1900.83 873.125 L1918.01 873.125 L1918.01 877.743 L1893.78 877.743 L1893.78 873.287 Q1895.16 872.032 1897.71 869.763 Q1911.65 857.408 1911.65 853.6 Q1911.65 850.926 1909.54 849.306 Q1907.43 847.645 1903.99 847.645 Q1901.88 847.645 1899.41 848.374 Q1896.94 849.063 1894.03 850.481 L1894.03 845.498 Q1897.15 844.364 1899.82 843.797 Q1902.53 843.23 1904.84 843.23 Q1910.72 843.23 1914.24 845.903 Q1917.76 848.577 1917.76 852.952 Q1917.76 858.583 1904.36 870.087 Q1902.09 872.032 1900.83 873.125 Z" fill="#000000" fill-rule="evenodd" fill-opacity="1" /><path clip-path="url(#clip850)" d="M1165.76 841.083 Q1168.56 836.06 1172.44 833.669 Q1176.33 831.279 1181.6 831.279 Q1188.69 831.279 1192.54 836.262 Q1196.39 841.204 1196.39 850.359 L1196.39 877.743 L1188.89 877.743 L1188.89 850.602 Q1188.89 844.08 1186.58 840.921 Q1184.27 837.761 1179.53 837.761 Q1173.74 837.761 1170.38 841.609 Q1167.02 845.458 1167.02 852.101 L1167.02 877.743 L1159.52 877.743 L1159.52 850.602 Q1159.52 844.04 1157.21 840.921 Q1154.9 837.761 1150.08 837.761 Q1144.37 837.761 1141.01 841.65 Q1137.65 845.498 1137.65 852.101 L1137.65 877.743 L1130.15 877.743 L1130.15 832.373 L1137.65 832.373 L1137.65 839.422 Q1140.2 835.249 1143.76 833.264 Q1147.33 831.279 1152.23 831.279 Q1157.17 831.279 1160.62 833.791 Q1164.1 836.303 1165.76 841.083 Z" fill="#000000" fill-rule="evenodd" fill-opacity="1" /></svg>
